<svg xmlns="http://www.w3.org/2000/svg" xmlns:xlink="http://www.w3.org/1999/xlink" width="127.133" height="85.484" viewBox="0 0 127.133 85.484"><defs><clipPath id="a"><path d="M0,61.62H127.133V-23.864H0Z" transform="translate(0 23.864)" fill="none"/></clipPath></defs><g clip-path="url(#a)"><g transform="translate(0.001 -0.001)"><path d="M3.018,56.12A3.738,3.738,0,0,0,6.74,59.773a3.8,3.8,0,0,0,2.894-1.4l.265-.319,3.4,2.336-.312.383A8,8,0,0,1,6.74,63.692a7.578,7.578,0,1,1,0-15.142,7.972,7.972,0,0,1,6.279,2.955l.308.383-3.4,2.339L9.66,53.9A3.837,3.837,0,0,0,6.74,52.466,3.74,3.74,0,0,0,3.018,56.12M43.31,48.959h3.8v14.26H42.766l-5.731-7.985v7.985h-3.8V48.959h3.908l6.172,8.056Zm17.9,0H65.58l-4.65,14.26H54.7l-4.65-14.26h4.37l3.167,10.13a.214.214,0,0,0,.226.147c.064,0,.222-.007.222-.147v.025Zm35.2,14.26H92.124l-2.45-4.968a.484.484,0,0,0-.43-.168H87.528v5.137h-3.8V48.959h7.282a4.659,4.659,0,0,1,4.714,4.209,4.464,4.464,0,0,1-2.26,4.23Zm-4.682-9.7a.784.784,0,0,0-.842-.763H87.528v1.522h3.356a.783.783,0,0,0,.842-.759m22.829-4.564h11.409v3.8h-7.6v1.522H125.2v3.424h-6.842v1.709h7.6v3.8H114.555Zm-3.177,9.958v.043c0,3.005-2.515,4.789-6.086,4.789a10.664,10.664,0,0,1-7.035-2.436l2.3-2.712a7.724,7.724,0,0,0,4.832,1.766c1.093,0,1.8-.38,1.8-1.007v-.047c0-.609-.559-.942-2.554-1.408-3.131-.713-5.62-1.594-5.62-4.625v-.039c0-2.733,2.124-4.707,5.656-4.707a9.153,9.153,0,0,1,6.011,1.952l-2.282,2.7a7.137,7.137,0,0,0-3.811-1.268c-.989,0-1.39.419-1.39.942v.047c0,.67.577.964,2.615,1.426,3.382.738,5.559,1.827,5.559,4.582m-81.1-2.794a7.715,7.715,0,1,1-7.712-7.573,7.651,7.651,0,0,1,7.712,7.573m-4.1,0a3.613,3.613,0,1,0-3.611,3.614,3.615,3.615,0,0,0,3.611-3.614m42.355-7.164H79.941v3.8h-7.6v1.522h6.845v3.424H72.336v1.709h7.6v3.8H68.532ZM46.659,4.809l12.81,4.162-12.81,4.162V26.6l-7.916-10.9-12.81,4.162,7.916-10.9-7.916-10.9,12.81,4.162,7.916-10.9ZM74.8,8.972,46.659,39.678H70.724L98.862,8.972,70.724-21.734H46.659Z" transform="translate(1.169 21.734)" fill="#fff"/></g></g></svg>